<svg width="30" height="30" viewBox="0 0 30 30" fill="none" xmlns="http://www.w3.org/2000/svg">
<g clip-path="url(#clip0_18_8228)">
<path d="M22.8416 15.8377C22.8822 20.2238 26.6897 21.6836 26.7317 21.7023C26.6995 21.8049 26.1235 23.7824 24.726 25.8245C23.518 27.5902 22.2639 29.3493 20.289 29.3861C18.3484 29.4216 17.7243 28.235 15.5054 28.235C13.2871 28.235 12.594 29.3493 10.7567 29.4216C8.85015 29.4939 7.3983 27.512 6.18022 25.7531C3.69133 22.1547 1.78921 15.5846 4.34318 11.1497C5.61189 8.94733 7.8796 7.55287 10.3407 7.51694C12.2128 7.48125 13.9798 8.77632 15.1241 8.77632C16.2678 8.77632 18.4151 7.21878 20.6726 7.44742C21.6177 7.48685 24.2704 7.8291 25.9737 10.3227C25.8368 10.4078 22.8087 12.1707 22.8416 15.8377ZM19.1944 5.06702C20.2064 3.84194 20.8877 2.13603 20.702 0.439209C19.2429 0.497768 17.4787 1.41139 16.4323 2.636C15.4944 3.72016 14.6732 5.45594 14.8946 7.11916C16.5209 7.24514 18.1821 6.2928 19.1944 5.06702Z" fill="black"/>
</g>
<defs>
<clipPath id="clip0_18_8228">
<rect width="29.8629" height="29.8629" fill="white"/>
</clipPath>
</defs>
</svg>
