<svg width="21" height="21" viewBox="0 0 21 21" fill="none" xmlns="http://www.w3.org/2000/svg">
<path d="M12.1761 3.3584H7.97743L5.8781 5.87759H3.35891C2.91348 5.87759 2.48631 6.05454 2.17135 6.3695C1.85639 6.68446 1.67944 7.11163 1.67944 7.55706V15.1146C1.67944 15.5601 1.85639 15.9872 2.17135 16.3022C2.48631 16.6172 2.91348 16.7941 3.35891 16.7941H16.7946C17.24 16.7941 17.6672 16.6172 17.9822 16.3022C18.2971 15.9872 18.4741 15.5601 18.4741 15.1146V7.55706C18.4741 7.11163 18.2971 6.68446 17.9822 6.3695C17.6672 6.05454 17.24 5.87759 16.7946 5.87759H14.2754L12.1761 3.3584Z" stroke="#6A7282" stroke-width="1.67946" stroke-linecap="round" stroke-linejoin="round"/>
<path d="M10.0768 13.4358C11.4681 13.4358 12.596 12.308 12.596 10.9167C12.596 9.52534 11.4681 8.39746 10.0768 8.39746C8.6855 8.39746 7.55762 9.52534 7.55762 10.9167C7.55762 12.308 8.6855 13.4358 10.0768 13.4358Z" stroke="#6A7282" stroke-width="1.67946" stroke-linecap="round" stroke-linejoin="round"/>
</svg>
