<svg width="24" height="24" viewBox="0 0 24 24" fill="none" xmlns="http://www.w3.org/2000/svg">
<path opacity="0.987" fill-rule="evenodd" clip-rule="evenodd" d="M10.6674 1.57C11.7402 1.45014 12.375 1.45014 13.5277 1.57C15.5682 1.872 17.4597 2.81516 18.9287 4.2631C17.936 5.20145 16.9563 6.1535 15.99 7.11897C14.1393 5.55046 12.0736 5.18842 9.79289 6.03285C8.11982 6.80231 6.95478 8.04923 6.29778 9.7736C5.22415 8.9743 4.1645 8.15638 3.11932 7.32022C3.04669 7.28198 2.96373 7.26798 2.88257 7.28026C4.54282 4.07912 7.13728 2.1752 10.6659 1.56852" fill="#F44336"/>
<path opacity="0.997" fill-rule="evenodd" clip-rule="evenodd" d="M2.87963 7.28023C2.96348 7.26741 3.04289 7.28072 3.11786 7.32018C4.16304 8.15635 5.22269 8.97427 6.29632 9.77357C6.12737 10.4455 6.02087 11.1315 5.97818 11.823C6.01468 12.4918 6.12072 13.1483 6.29632 13.7925L2.95953 16.4486C1.50644 13.4122 1.47981 10.3561 2.87963 7.28023Z" fill="#FFC107"/>
<path opacity="0.999" fill-rule="evenodd" clip-rule="evenodd" d="M18.7703 19.6656C17.7313 18.7494 16.6436 17.8899 15.5119 17.0909C16.6464 16.2899 17.335 15.191 17.5776 13.7941H12.0183V9.93348C15.2244 9.90685 18.429 9.93397 21.6321 10.0149C22.2398 13.3147 21.5379 16.2899 19.5264 18.9406C19.2873 19.1948 19.0339 19.4368 18.7703 19.6656Z" fill="#448AFF"/>
<path opacity="0.993" fill-rule="evenodd" clip-rule="evenodd" d="M6.29626 13.7941C7.50963 16.8098 9.73416 18.2175 12.9698 18.0172C13.8781 17.9121 14.749 17.5947 15.512 17.0909C16.6445 17.8919 17.7306 18.7502 18.7704 19.6656C17.1229 21.146 15.0224 22.0244 12.8115 22.1575C12.3092 22.1976 11.8045 22.1976 11.3022 22.1575C7.53578 21.7136 4.75487 19.8106 2.95947 16.4487L6.29626 13.7941Z" fill="#43A047"/>
</svg>
