<svg width="21" height="21" viewBox="0 0 21 21" fill="none" xmlns="http://www.w3.org/2000/svg">
<path d="M10.0768 18.4743C14.7145 18.4743 18.4741 14.7147 18.4741 10.077C18.4741 5.43929 14.7145 1.67969 10.0768 1.67969C5.43906 1.67969 1.67946 5.43929 1.67946 10.077C1.67946 14.7147 5.43906 18.4743 10.0768 18.4743Z" stroke="#6A7282" stroke-width="1.67946" stroke-linecap="round" stroke-linejoin="round"/>
<path d="M7.63316 7.55724C7.83058 6.99603 8.22026 6.52279 8.73317 6.22134C9.24608 5.9199 9.84912 5.80971 10.4355 5.91029C11.0219 6.01087 11.5537 6.31572 11.9368 6.77086C12.32 7.226 12.5297 7.80205 12.5288 8.39698C12.5288 10.0764 10.0096 10.9162 10.0096 10.9162" stroke="#6A7282" stroke-width="1.67946" stroke-linecap="round" stroke-linejoin="round"/>
<path d="M10.0768 14.2754H10.0843" stroke="#6A7282" stroke-width="1.67946" stroke-linecap="round" stroke-linejoin="round"/>
</svg>
