<svg width="23" height="23" viewBox="0 0 23 23" fill="none" xmlns="http://www.w3.org/2000/svg">
<path d="M9.57986 19.5928C9.74364 19.8764 9.9792 20.1119 10.2628 20.2757C10.5465 20.4395 10.8683 20.5257 11.1958 20.5257C11.5233 20.5257 11.8451 20.4395 12.1287 20.2757C12.4124 20.1119 12.6479 19.8764 12.8117 19.5928" stroke="#99A1AF" stroke-width="1.86597" stroke-linecap="round" stroke-linejoin="round"/>
<path d="M3.04338 14.2989C2.9215 14.4325 2.84107 14.5986 2.81187 14.7771C2.78267 14.9555 2.80596 15.1386 2.8789 15.3041C2.95185 15.4696 3.07131 15.6103 3.22275 15.7091C3.3742 15.8079 3.55109 15.8606 3.73192 15.8607H18.6597C18.8405 15.8608 19.0174 15.8083 19.1689 15.7097C19.3205 15.611 19.4401 15.4705 19.5132 15.3051C19.5864 15.1398 19.6099 14.9567 19.5809 14.7783C19.552 14.5998 19.4718 14.4336 19.3501 14.2998C18.1092 13.0207 16.7937 11.6614 16.7937 7.46387C16.7937 5.97921 16.2039 4.55536 15.1541 3.50555C14.1043 2.45574 12.6804 1.86597 11.1958 1.86597C9.71114 1.86597 8.28729 2.45574 7.23748 3.50555C6.18767 4.55536 5.59789 5.97921 5.59789 7.46387C5.59789 11.6614 4.28145 13.0207 3.04338 14.2989Z" stroke="#99A1AF" stroke-width="1.86597" stroke-linecap="round" stroke-linejoin="round"/>
</svg>
