<svg width="21" height="21" viewBox="0 0 21 21" fill="none" xmlns="http://www.w3.org/2000/svg">
<path d="M16.7946 10.9161C16.7946 15.1148 13.8556 17.2141 10.3623 18.4317C10.1794 18.4937 9.98066 18.4908 9.79967 18.4233C6.29798 17.2141 3.35892 15.1148 3.35892 10.9161V5.03801C3.35892 4.8153 3.4474 4.60171 3.60488 4.44423C3.76236 4.28675 3.97595 4.19828 4.19866 4.19828C5.87812 4.19828 7.97745 3.19061 9.43858 1.91421C9.61648 1.76222 9.84279 1.67871 10.0768 1.67871C10.3108 1.67871 10.5371 1.76222 10.715 1.91421C12.1845 3.199 14.2754 4.19828 15.9549 4.19828C16.1776 4.19828 16.3912 4.28675 16.5487 4.44423C16.7062 4.60171 16.7946 4.8153 16.7946 5.03801V10.9161Z" stroke="#6A7282" stroke-width="1.67946" stroke-linecap="round" stroke-linejoin="round"/>
</svg>
