<svg width="23" height="23" viewBox="0 0 23 23" fill="none" xmlns="http://www.w3.org/2000/svg">
<path d="M11.401 1.86597H10.9905C10.4956 1.86597 10.021 2.06256 9.67109 2.4125C9.32116 2.76243 9.12456 3.23705 9.12456 3.73193V3.89987C9.12423 4.22709 9.03785 4.54847 8.87409 4.83177C8.71034 5.11507 8.47496 5.35032 8.19158 5.51393L7.7904 5.74718C7.50673 5.91095 7.18496 5.99717 6.85741 5.99717C6.52987 5.99717 6.20809 5.91095 5.92443 5.74718L5.78448 5.67254C5.3563 5.42554 4.84761 5.35854 4.37008 5.48623C3.89255 5.61392 3.48519 5.92588 3.23744 6.35362L3.03218 6.70815C2.78518 7.13633 2.71818 7.64502 2.84587 8.12255C2.97356 8.60009 3.28552 9.00744 3.71326 9.2552L3.85321 9.3485C4.13522 9.51131 4.36972 9.7451 4.5334 10.0266C4.69707 10.3081 4.78422 10.6276 4.78619 10.9532V11.429C4.78749 11.7579 4.70189 12.0812 4.53806 12.3662C4.37422 12.6513 4.13796 12.888 3.85321 13.0524L3.71326 13.1364C3.28552 13.3842 2.97356 13.7915 2.84587 14.2691C2.71818 14.7466 2.78518 15.2553 3.03218 15.6835L3.23744 16.038C3.48519 16.4657 3.89255 16.7777 4.37008 16.9054C4.84761 17.0331 5.3563 16.9661 5.78448 16.7191L5.92443 16.6444C6.20809 16.4807 6.52987 16.3944 6.85741 16.3944C7.18496 16.3944 7.50673 16.4807 7.7904 16.6444L8.19158 16.8777C8.47496 17.0413 8.71034 17.2765 8.87409 17.5598C9.03785 17.8431 9.12423 18.1645 9.12456 18.4917V18.6597C9.12456 19.1546 9.32116 19.6292 9.67109 19.9791C10.021 20.329 10.4956 20.5256 10.9905 20.5256H11.401C11.8959 20.5256 12.3705 20.329 12.7205 19.9791C13.0704 19.6292 13.267 19.1546 13.267 18.6597V18.4917C13.2673 18.1645 13.3537 17.8431 13.5175 17.5598C13.6812 17.2765 13.9166 17.0413 14.2 16.8777L14.6012 16.6444C14.8848 16.4807 15.2066 16.3944 15.5342 16.3944C15.8617 16.3944 16.1835 16.4807 16.4671 16.6444L16.6071 16.7191C17.0353 16.9661 17.544 17.0331 18.0215 16.9054C18.499 16.7777 18.9064 16.4657 19.1541 16.038L19.3594 15.6741C19.6064 15.2459 19.6734 14.7373 19.5457 14.2597C19.418 13.7822 19.1061 13.3748 18.6783 13.1271L18.5384 13.0524C18.2536 12.888 18.0174 12.6513 17.8535 12.3662C17.6897 12.0812 17.6041 11.7579 17.6054 11.429V10.9626C17.6041 10.6338 17.6897 10.3104 17.8535 10.0254C18.0174 9.74029 18.2536 9.50357 18.5384 9.33917L18.6783 9.2552C19.1061 9.00744 19.418 8.60009 19.5457 8.12255C19.6734 7.64502 19.6064 7.13633 19.3594 6.70815L19.1541 6.35362C18.9064 5.92588 18.499 5.61392 18.0215 5.48623C17.544 5.35854 17.0353 5.42554 16.6071 5.67254L16.4671 5.74718C16.1835 5.91095 15.8617 5.99717 15.5342 5.99717C15.2066 5.99717 14.8848 5.91095 14.6012 5.74718L14.2 5.51393C13.9166 5.35032 13.6812 5.11507 13.5175 4.83177C13.3537 4.54847 13.2673 4.22709 13.267 3.89987V3.73193C13.267 3.23705 13.0704 2.76243 12.7205 2.4125C12.3705 2.06256 11.8959 1.86597 11.401 1.86597Z" stroke="#99A1AF" stroke-width="1.86597" stroke-linecap="round" stroke-linejoin="round"/>
<path d="M11.1958 13.9946C12.7416 13.9946 13.9948 12.7415 13.9948 11.1957C13.9948 9.64986 12.7416 8.39673 11.1958 8.39673C9.64998 8.39673 8.39685 9.64986 8.39685 11.1957C8.39685 12.7415 9.64998 13.9946 11.1958 13.9946Z" stroke="#99A1AF" stroke-width="1.86597" stroke-linecap="round" stroke-linejoin="round"/>
</svg>
