<svg width="18" height="18" viewBox="0 0 18 18" fill="none" xmlns="http://www.w3.org/2000/svg">
<g clip-path="url(#clip0_9_7324)">
<path d="M1.53921 9.21709C1.477 9.04949 1.477 8.86514 1.53921 8.69754C2.14513 7.22836 3.17364 5.97218 4.49435 5.08824C5.81507 4.2043 7.3685 3.73242 8.95772 3.73242C10.5469 3.73242 12.1004 4.2043 13.4211 5.08824C14.7418 5.97218 15.7703 7.22836 16.3762 8.69754C16.4384 8.86514 16.4384 9.04949 16.3762 9.21709C15.7703 10.6863 14.7418 11.9425 13.4211 12.8264C12.1004 13.7103 10.5469 14.1822 8.95772 14.1822C7.3685 14.1822 5.81507 13.7103 4.49435 12.8264C3.17364 11.9425 2.14513 10.6863 1.53921 9.21709Z" stroke="#99A1AF" stroke-width="1.49296" stroke-linecap="round" stroke-linejoin="round"/>
<path d="M8.95782 11.1966C10.1946 11.1966 11.1973 10.194 11.1973 8.95721C11.1973 7.7204 10.1946 6.71777 8.95782 6.71777C7.72101 6.71777 6.71838 7.7204 6.71838 8.95721C6.71838 10.194 7.72101 11.1966 8.95782 11.1966Z" stroke="#99A1AF" stroke-width="1.49296" stroke-linecap="round" stroke-linejoin="round"/>
</g>
<defs>
<clipPath id="clip0_9_7324">
<rect width="17.9155" height="17.9155" fill="white"/>
</clipPath>
</defs>
</svg>
