<svg width="21" height="21" viewBox="0 0 21 21" fill="none" xmlns="http://www.w3.org/2000/svg">
<path d="M9.67791 1.92732C9.71471 1.85297 9.77156 1.79039 9.84204 1.74663C9.91252 1.70287 9.99382 1.67969 10.0768 1.67969C10.1597 1.67969 10.241 1.70287 10.3115 1.74663C10.382 1.79039 10.4389 1.85297 10.4757 1.92732L12.4154 5.85642C12.5432 6.11503 12.7319 6.33877 12.9651 6.50843C13.1984 6.6781 13.4694 6.78862 13.7548 6.83051L18.0929 7.46535C18.1751 7.47726 18.2523 7.51193 18.3158 7.56544C18.3793 7.61896 18.4266 7.68918 18.4523 7.76816C18.478 7.84714 18.481 7.93174 18.4612 8.01238C18.4413 8.09302 18.3992 8.16648 18.3397 8.22446L15.2025 11.2794C14.9956 11.481 14.8408 11.7299 14.7514 12.0046C14.6621 12.2793 14.6408 12.5717 14.6894 12.8564L15.4301 17.1726C15.4446 17.2548 15.4357 17.3394 15.4045 17.4167C15.3732 17.4941 15.3208 17.5611 15.2533 17.6101C15.1858 17.6592 15.1059 17.6882 15.0227 17.694C14.9395 17.6998 14.8563 17.6821 14.7826 17.6429L10.9048 15.604C10.6492 15.4699 10.365 15.3998 10.0764 15.3998C9.78776 15.3998 9.50348 15.4699 9.24797 15.604L5.37093 17.6429C5.29731 17.6819 5.21423 17.6994 5.13114 17.6935C5.04805 17.6876 4.96829 17.6585 4.90092 17.6095C4.83356 17.5605 4.78129 17.4936 4.75008 17.4164C4.71886 17.3391 4.70994 17.2547 4.72433 17.1726L5.46414 12.8573C5.51301 12.5724 5.49183 12.2799 5.40245 12.005C5.31306 11.7301 5.15815 11.4811 4.95106 11.2794L1.81382 8.2253C1.75386 8.16739 1.71137 8.0938 1.69119 8.01291C1.67101 7.93203 1.67396 7.8471 1.69969 7.76781C1.72542 7.68852 1.7729 7.61805 1.83673 7.56442C1.90056 7.5108 1.97816 7.47618 2.0607 7.46451L6.39792 6.83051C6.68364 6.78894 6.95499 6.67857 7.1886 6.50888C7.4222 6.3392 7.61108 6.11529 7.73897 5.85642L9.67791 1.92732Z" stroke="#6A7282" stroke-width="1.67946" stroke-linecap="round" stroke-linejoin="round"/>
</svg>
