<svg width="21" height="21" viewBox="0 0 21 21" fill="none" xmlns="http://www.w3.org/2000/svg">
<path d="M10.0768 2.51855C9.07458 3.52075 8.51155 4.88002 8.51155 6.29735C8.51155 7.71467 9.07458 9.07394 10.0768 10.0761C11.079 11.0783 12.4382 11.6414 13.8556 11.6414C15.2729 11.6414 16.6322 11.0783 17.6344 10.0761C17.6344 11.5709 17.1911 13.0321 16.3607 14.2749C15.5302 15.5177 14.3499 16.4864 12.9689 17.0584C11.588 17.6305 10.0684 17.7801 8.60237 17.4885C7.13634 17.1969 5.78971 16.4771 4.73276 15.4202C3.67581 14.3632 2.95602 13.0166 2.66441 11.5505C2.3728 10.0845 2.52247 8.56494 3.09448 7.18398C3.6665 5.80301 4.63517 4.62268 5.87801 3.79224C7.12085 2.9618 8.58203 2.51855 10.0768 2.51855Z" stroke="#6A7282" stroke-width="1.67946" stroke-linecap="round" stroke-linejoin="round"/>
</svg>
