<svg width="21" height="21" viewBox="0 0 21 21" fill="none" xmlns="http://www.w3.org/2000/svg">
<path d="M15.9549 2.51855H4.19863C3.27109 2.51855 2.51917 3.27048 2.51917 4.19802V15.9543C2.51917 16.8818 3.27109 17.6337 4.19863 17.6337H15.9549C16.8824 17.6337 17.6343 16.8818 17.6343 15.9543V4.19802C17.6343 3.27048 16.8824 2.51855 15.9549 2.51855Z" stroke="#6A7282" stroke-width="1.67946" stroke-linecap="round" stroke-linejoin="round"/>
<path d="M7.55758 9.23686C8.48512 9.23686 9.23704 8.48493 9.23704 7.55739C9.23704 6.62985 8.48512 5.87793 7.55758 5.87793C6.63003 5.87793 5.87811 6.62985 5.87811 7.55739C5.87811 8.48493 6.63003 9.23686 7.55758 9.23686Z" stroke="#6A7282" stroke-width="1.67946" stroke-linecap="round" stroke-linejoin="round"/>
<path d="M17.6344 12.5949L15.043 10.0034C14.728 9.68859 14.3009 9.51172 13.8556 9.51172C13.4102 9.51172 12.9831 9.68859 12.6682 10.0034L5.03839 17.6332" stroke="#6A7282" stroke-width="1.67946" stroke-linecap="round" stroke-linejoin="round"/>
</svg>
