<svg width="18" height="18" viewBox="0 0 18 18" fill="none" xmlns="http://www.w3.org/2000/svg">
<g clip-path="url(#clip0_2_2289)">
<path d="M14.9296 7.465C14.9296 11.1922 10.7948 15.0739 9.40637 16.2727C9.27702 16.37 9.11957 16.4226 8.95773 16.4226C8.7959 16.4226 8.63845 16.37 8.5091 16.2727C7.12065 15.0739 2.9859 11.1922 2.9859 7.465C2.9859 5.88117 3.61507 4.36221 4.73501 3.24227C5.85495 2.12234 7.37391 1.49316 8.95773 1.49316C10.5416 1.49316 12.0605 2.12234 13.1805 3.24227C14.3004 4.36221 14.9296 5.88117 14.9296 7.465Z" stroke="#99A1AF" stroke-width="1.49296" stroke-linecap="round" stroke-linejoin="round"/>
<path d="M8.95776 9.70446C10.1946 9.70446 11.1972 8.70183 11.1972 7.46502C11.1972 6.22822 10.1946 5.22559 8.95776 5.22559C7.72095 5.22559 6.71832 6.22822 6.71832 7.46502C6.71832 8.70183 7.72095 9.70446 8.95776 9.70446Z" stroke="#99A1AF" stroke-width="1.49296" stroke-linecap="round" stroke-linejoin="round"/>
</g>
<defs>
<clipPath id="clip0_2_2289">
<rect width="17.9155" height="17.9155" fill="white"/>
</clipPath>
</defs>
</svg>
