<svg width="24" height="24" viewBox="0 0 24 24" fill="none" xmlns="http://www.w3.org/2000/svg">
<g clip-path="url(#clip0_18_8244)">
<path d="M23.6877 11.8438C23.6877 5.3027 18.385 0 11.8438 0C5.3027 0 0 5.3027 0 11.8438C0 17.7554 4.33114 22.6553 9.99323 23.5438V15.2674H6.98601V11.8438H9.99323V9.23448C9.99323 6.26613 11.7615 4.6265 14.4669 4.6265C15.7627 4.6265 17.118 4.85782 17.118 4.85782V7.77251H15.6246C14.1533 7.77251 13.6944 8.6855 13.6944 9.62218V11.8438H16.9792L16.4541 15.2674H13.6944V23.5438C19.3565 22.6553 23.6877 17.7555 23.6877 11.8438Z" fill="#1877F2"/>
<path d="M16.4541 15.2674L16.9792 11.8438H13.6944V9.62215C13.6944 8.68538 14.1533 7.77248 15.6246 7.77248H17.118V4.85779C17.118 4.85779 15.7626 4.62646 14.4668 4.62646C11.7615 4.62646 9.99321 6.2661 9.99321 9.23446V11.8438H6.98599V15.2674H9.99321V23.5437C10.6054 23.6397 11.2241 23.6878 11.8438 23.6876C12.4635 23.6878 13.0822 23.6397 13.6944 23.5437V15.2674H16.4541Z" fill="white"/>
</g>
<defs>
<clipPath id="clip0_18_8244">
<rect width="23.6877" height="23.6877" fill="white"/>
</clipPath>
</defs>
</svg>
