<svg width="23" height="23" viewBox="0 0 23 23" fill="none" xmlns="http://www.w3.org/2000/svg">
<path d="M13.9948 19.5929V12.129C13.9948 11.8816 13.8965 11.6443 13.7215 11.4693C13.5465 11.2943 13.3092 11.196 13.0618 11.196H9.32984C9.0824 11.196 8.84509 11.2943 8.67012 11.4693C8.49515 11.6443 8.39686 11.8816 8.39686 12.129V19.5929" stroke="white" stroke-width="1.86597" stroke-linecap="round" stroke-linejoin="round"/>
<path d="M2.79895 9.32984C2.79889 9.0584 2.85804 8.79022 2.97229 8.544C3.08653 8.29778 3.25312 8.07945 3.46044 7.90424L9.99132 2.30727C10.3281 2.02263 10.7548 1.86646 11.1958 1.86646C11.6368 1.86646 12.0635 2.02263 12.4003 2.30727L18.9312 7.90424C19.1385 8.07945 19.3051 8.29778 19.4193 8.544C19.5336 8.79022 19.5927 9.0584 19.5927 9.32984V17.7267C19.5927 18.2216 19.3961 18.6962 19.0461 19.0461C18.6962 19.3961 18.2216 19.5927 17.7267 19.5927H4.66492C4.17003 19.5927 3.69542 19.3961 3.34548 19.0461C2.99554 18.6962 2.79895 18.2216 2.79895 17.7267V9.32984Z" stroke="white" stroke-width="1.86597" stroke-linecap="round" stroke-linejoin="round"/>
</svg>
