<svg width="21" height="21" viewBox="0 0 21 21" fill="none" xmlns="http://www.w3.org/2000/svg">
<path d="M8.62238 17.6343C8.76978 17.8896 8.98179 18.1016 9.2371 18.249C9.4924 18.3963 9.782 18.4739 10.0768 18.4739C10.3716 18.4739 10.6612 18.3963 10.9165 18.249C11.1718 18.1016 11.3838 17.8896 11.5312 17.6343" stroke="#0A0A0A" stroke-width="1.67946" stroke-linecap="round" stroke-linejoin="round"/>
<path d="M2.73917 12.8697C2.62947 12.9899 2.55708 13.1395 2.5308 13.3001C2.50451 13.4607 2.52548 13.6255 2.59113 13.7744C2.65679 13.9234 2.76431 14.05 2.90061 14.1389C3.03692 14.2279 3.19614 14.2753 3.35889 14.2754H16.7946C16.9573 14.2755 17.1166 14.2282 17.253 14.1395C17.3894 14.0507 17.497 13.9242 17.5629 13.7754C17.6287 13.6265 17.6499 13.4618 17.6238 13.3011C17.5977 13.1405 17.5255 12.9909 17.416 12.8705C16.2992 11.7193 15.1151 10.4958 15.1151 6.71783C15.1151 5.38157 14.5843 4.10003 13.6394 3.15515C12.6945 2.21027 11.413 1.67944 10.0767 1.67944C8.74048 1.67944 7.45895 2.21027 6.51407 3.15515C5.56919 4.10003 5.03836 5.38157 5.03836 6.71783C5.03836 10.4958 3.8535 11.7193 2.73917 12.8697Z" stroke="#0A0A0A" stroke-width="1.67946" stroke-linecap="round" stroke-linejoin="round"/>
</svg>
