<svg width="23" height="23" viewBox="0 0 23 23" fill="none" xmlns="http://www.w3.org/2000/svg">
<path d="M14.9277 18.6597V3.73193C14.9277 3.23705 14.7311 2.76243 14.3812 2.4125C14.0313 2.06256 13.5567 1.86597 13.0618 1.86597H9.32983C8.83495 1.86597 8.36033 2.06256 8.0104 2.4125C7.66046 2.76243 7.46387 3.23705 7.46387 3.73193V18.6597" stroke="#99A1AF" stroke-width="1.86597" stroke-linecap="round" stroke-linejoin="round"/>
<path d="M18.6597 5.5979H3.73193C2.70138 5.5979 1.86596 6.43332 1.86596 7.46387V16.7937C1.86596 17.8243 2.70138 18.6597 3.73193 18.6597H18.6597C19.6902 18.6597 20.5256 17.8243 20.5256 16.7937V7.46387C20.5256 6.43332 19.6902 5.5979 18.6597 5.5979Z" stroke="#99A1AF" stroke-width="1.86597" stroke-linecap="round" stroke-linejoin="round"/>
</svg>
