<svg width="21" height="21" viewBox="0 0 21 21" fill="none" xmlns="http://www.w3.org/2000/svg">
<path d="M15.9549 9.23633H4.19866C3.27112 9.23633 2.5192 9.98825 2.5192 10.9158V16.7939C2.5192 17.7215 3.27112 18.4734 4.19866 18.4734H15.9549C16.8824 18.4734 17.6344 17.7215 17.6344 16.7939V10.9158C17.6344 9.98825 16.8824 9.23633 15.9549 9.23633Z" stroke="#6A7282" stroke-width="1.67946" stroke-linecap="round" stroke-linejoin="round"/>
<path d="M5.87812 9.23727V5.87834C5.87812 4.76479 6.32048 3.69685 7.10788 2.90945C7.89528 2.12204 8.96322 1.67969 10.0768 1.67969C11.1903 1.67969 12.2583 2.12204 13.0457 2.90945C13.8331 3.69685 14.2754 4.76479 14.2754 5.87834V9.23727" stroke="#6A7282" stroke-width="1.67946" stroke-linecap="round" stroke-linejoin="round"/>
</svg>
