<svg width="23" height="23" viewBox="0 0 23 23" fill="none" xmlns="http://www.w3.org/2000/svg">
<path d="M14.9277 19.5928V17.7268C14.9277 16.737 14.5346 15.7878 13.8347 15.0879C13.1348 14.3881 12.1856 13.9949 11.1958 13.9949H5.5979C4.60813 13.9949 3.6589 14.3881 2.95903 15.0879C2.25915 15.7878 1.86597 16.737 1.86597 17.7268V19.5928" stroke="#99A1AF" stroke-width="1.86597" stroke-linecap="round" stroke-linejoin="round"/>
<path d="M8.39684 10.2629C10.4579 10.2629 12.1288 8.5921 12.1288 6.53101C12.1288 4.46992 10.4579 2.79907 8.39684 2.79907C6.33575 2.79907 4.6649 4.46992 4.6649 6.53101C4.6649 8.5921 6.33575 10.2629 8.39684 10.2629Z" stroke="#99A1AF" stroke-width="1.86597" stroke-linecap="round" stroke-linejoin="round"/>
<path d="M20.5256 19.5926V17.7266C20.525 16.8997 20.2498 16.0965 19.7432 15.443C19.2366 14.7894 18.5273 14.3227 17.7267 14.116" stroke="#99A1AF" stroke-width="1.86597" stroke-linecap="round" stroke-linejoin="round"/>
<path d="M14.9277 2.92041C15.7305 3.12595 16.442 3.59281 16.9501 4.2474C17.4582 4.90199 17.734 5.70707 17.734 6.53572C17.734 7.36437 17.4582 8.16945 16.9501 8.82404C16.442 9.47863 15.7305 9.9455 14.9277 10.151" stroke="#99A1AF" stroke-width="1.86597" stroke-linecap="round" stroke-linejoin="round"/>
</svg>
