<svg width="21" height="23" viewBox="0 0 21 23" fill="none" xmlns="http://www.w3.org/2000/svg">
<path d="M8.62238 20.2932C8.76978 20.5485 8.98179 20.7605 9.2371 20.9079C9.4924 21.0553 9.782 21.1329 10.0768 21.1329C10.3716 21.1329 10.6612 21.0553 10.9165 20.9079C11.1718 20.7605 11.3838 20.5485 11.5312 20.2932" stroke="#0A0A0A" stroke-width="1.67946" stroke-linecap="round" stroke-linejoin="round"/>
<path d="M2.73917 15.5286C2.62947 15.6489 2.55708 15.7984 2.5308 15.959C2.50451 16.1196 2.52548 16.2844 2.59113 16.4334C2.65679 16.5823 2.76431 16.7089 2.90061 16.7979C3.03692 16.8868 3.19614 16.9342 3.35889 16.9344H16.7946C16.9573 16.9344 17.1166 16.8872 17.253 16.7984C17.3894 16.7096 17.497 16.5831 17.5629 16.4343C17.6287 16.2855 17.6499 16.1207 17.6238 15.9601C17.5977 15.7994 17.5255 15.6498 17.416 15.5295C16.2992 14.3782 15.1151 13.1547 15.1151 9.37677C15.1151 8.0405 14.5843 6.75897 13.6394 5.81409C12.6945 4.86921 11.413 4.33838 10.0767 4.33838C8.74048 4.33838 7.45895 4.86921 6.51407 5.81409C5.56919 6.75897 5.03836 8.0405 5.03836 9.37677C5.03836 13.1547 3.8535 14.3782 2.73917 15.5286Z" stroke="#0A0A0A" stroke-width="1.67946" stroke-linecap="round" stroke-linejoin="round"/>
<path d="M11.6223 4.47611C11.6223 2.00402 13.6264 0 16.0985 0C18.5705 0 20.5746 2.00402 20.5746 4.47611C20.5746 6.94819 18.5705 8.95221 16.0985 8.95221C13.6264 8.95221 11.6223 6.94819 11.6223 4.47611Z" fill="#FB2C36"/>
</svg>
