<svg width="19" height="18" viewBox="0 0 19 18" fill="none" xmlns="http://www.w3.org/2000/svg">
<path d="M8.83969 1.08748C8.87649 1.01313 8.93333 0.950542 9.00381 0.906786C9.07429 0.86303 9.1556 0.839844 9.23856 0.839844C9.32152 0.839844 9.40282 0.86303 9.4733 0.906786C9.54378 0.950542 9.60063 1.01313 9.63743 1.08748L11.5772 5.01658C11.705 5.27519 11.8936 5.49893 12.1269 5.66859C12.3602 5.83825 12.6312 5.94878 12.9166 5.99067L17.2546 6.6255C17.3368 6.63741 17.4141 6.67209 17.4776 6.7256C17.5411 6.77911 17.5884 6.84933 17.6141 6.92832C17.6397 7.0073 17.6428 7.0919 17.6229 7.17254C17.603 7.25317 17.561 7.32664 17.5015 7.38462L14.3643 10.4396C14.1574 10.6412 14.0026 10.8901 13.9132 11.1648C13.8238 11.4395 13.8025 11.7318 13.8512 12.0166L14.5918 16.3328C14.6064 16.415 14.5975 16.4995 14.5662 16.5769C14.535 16.6543 14.4826 16.7213 14.4151 16.7703C14.3476 16.8193 14.2677 16.8484 14.1845 16.8542C14.1012 16.86 14.0181 16.8423 13.9444 16.803L10.0665 14.7642C9.81102 14.63 9.52674 14.5599 9.23814 14.5599C8.94954 14.5599 8.66526 14.63 8.40974 14.7642L4.5327 16.803C4.45909 16.842 4.37601 16.8596 4.29292 16.8536C4.20983 16.8477 4.13007 16.8186 4.0627 16.7696C3.99534 16.7206 3.94307 16.6537 3.91185 16.5765C3.88064 16.4993 3.87172 16.4148 3.88611 16.3328L4.62591 12.0174C4.67478 11.7325 4.65361 11.44 4.56423 11.1651C4.47484 10.8902 4.31992 10.6412 4.11284 10.4396L0.975601 7.38546C0.915639 7.32755 0.873148 7.25396 0.852969 7.17307C0.83279 7.09219 0.835733 7.00726 0.861464 6.92797C0.887195 6.84867 0.934679 6.7782 0.998507 6.72458C1.06233 6.67095 1.13994 6.63633 1.22248 6.62466L5.5597 5.99067C5.84542 5.9491 6.11676 5.83872 6.35037 5.66904C6.58398 5.49935 6.77286 5.27544 6.90075 5.01658L8.83969 1.08748Z" stroke="#6A7282" stroke-width="1.67946" stroke-linecap="round" stroke-linejoin="round"/>
</svg>
