<svg width="121" height="145" viewBox="0 0 121 145" fill="none" xmlns="http://www.w3.org/2000/svg">
<path d="M65.2583 86.1283C67.9187 85.1148 70.1556 83.227 71.6019 80.7747L76.3932 72.6502C82.8858 61.6411 99.7576 66.2457 99.7576 79.0266V98.4363C99.7576 105.369 94.1378 110.989 87.2053 110.989H68.2094C54.2719 110.989 50.7165 91.6681 63.7409 86.7064L65.2583 86.1283Z" fill="#141718"/>
<path d="M42.8691 69.693C42.6888 72.5343 43.4797 75.3524 45.112 77.685L50.52 85.4128C57.848 95.8843 46.6648 109.33 35.0333 104.033L17.3692 95.9883C11.0602 93.1151 8.27505 85.6714 11.1483 79.3625L19.0215 62.075C24.7982 49.3909 43.8547 54.163 42.972 68.0725L42.8691 69.693Z" fill="#141718"/>
<path d="M66.5392 61.4711C64.3292 59.6764 61.5747 58.6863 58.7278 58.6633L49.296 58.587C36.5155 58.4837 32.0475 41.5751 43.1087 35.1718L59.9068 25.4475C65.9064 21.9743 73.5856 24.0224 77.0588 30.022L86.5759 46.4619C93.5586 58.524 78.6191 71.2808 67.7997 62.4947L66.5392 61.4711Z" fill="#141718"/>
</svg>
